<?xml version="1.0" standalone="no"?>
<!DOCTYPE svg PUBLIC "-//W3C//DTD SVG 20010904//EN"
 "http://www.w3.org/TR/2001/REC-SVG-20010904/DTD/svg10.dtd">
<svg version="1.0" xmlns="http://www.w3.org/2000/svg"
 width="225.000000pt" height="225.000000pt" viewBox="0 0 225.000000 225.000000"
 preserveAspectRatio="xMidYMid meet">

<g transform="translate(0.000000,225.000000) scale(0.100000,-0.100000)"
fill="#DAA520" stroke="none">
<path d="M1015 2070 c-89 -10 -140 -23 -240 -62 -287 -112 -494 -350 -577
-662 -28 -107 -30 -313 -3 -431 71 -314 299 -575 597 -685 124 -45 179 -54
333 -54 154 0 209 9 333 54 257 95 467 305 562 562 43 119 53 180 54 328 0
117 -4 161 -22 227 -79 302 -285 542 -563 656 -146 60 -319 85 -474 67z m355
-80 c287 -84 516 -304 609 -587 44 -132 56 -262 37 -395 -60 -419 -368 -721
-795 -779 -81 -11 -108 -11 -210 4 -222 33 -377 110 -531 267 -221 225 -305
556 -219 869 79 291 326 539 619 619 106 29 119 31 275 27 107 -3 158 -9 215
-25z"/>
<path d="M1160 1120 l0 -832 23 15 c12 9 70 46 130 83 59 38 107 71 107 74 0
3 -7 14 -15 24 -10 14 -18 16 -27 9 -19 -15 -110 -64 -113 -61 -1 2 -9 73 -19
158 -9 85 -19 171 -22 190 -5 35 -4 36 70 79 41 23 83 45 93 47 12 3 71 -35
168 -107 83 -61 151 -112 153 -114 2 -2 -23 -18 -55 -36 -32 -18 -60 -33 -61
-35 -8 -5 10 -44 20 -44 6 0 69 32 140 71 l131 72 -7 60 c-3 33 -6 102 -6 153
0 94 0 94 -25 94 -24 0 -25 -2 -25 -75 0 -41 -2 -75 -4 -75 -3 0 -60 25 -128
56 -68 30 -147 65 -175 77 l-53 22 0 100 1 100 170 75 c94 41 175 77 180 78 5
2 9 -30 9 -72 0 -74 1 -76 25 -76 l25 0 2 110 c4 219 6 201 -27 220 -184 101
-236 125 -245 110 -18 -27 -11 -39 38 -64 26 -14 53 -29 60 -34 10 -7 -28 -39
-135 -117 -81 -59 -153 -109 -159 -112 -7 -2 -50 17 -98 42 -78 43 -85 49 -81
73 2 15 12 99 21 187 9 88 20 163 23 167 4 4 33 -8 64 -27 32 -19 60 -35 62
-35 2 0 9 9 15 20 10 18 -1 27 -107 96 -65 42 -123 79 -130 81 -11 4 -13 -155
-13 -827z"/>
<path d="M805 1873 c-65 -26 -172 -101 -213 -150 -91 -106 -139 -263 -128
-420 16 -227 129 -371 326 -417 l60 -14 0 146 c0 81 -4 153 -9 160 -4 8 -45
52 -90 98 -104 107 -136 169 -136 269 0 55 6 82 27 128 31 65 122 163 183 195
47 25 36 28 -20 5z"/>
<path d="M966 1630 c-31 -47 -60 -120 -70 -171 -6 -34 -4 -37 24 -49 65 -27
122 -127 141 -247 20 -133 -13 -491 -57 -610 -9 -24 -19 -43 -23 -43 -4 0 -18
22 -31 50 -13 27 -33 59 -46 71 -24 23 -29 23 -151 13 -132 -11 -172 5 -313
125 l-51 44 31 -54 c80 -135 147 -205 227 -235 45 -18 97 -14 158 11 20 8 20
8 1 -13 -10 -12 -41 -30 -69 -40 l-50 -19 32 -22 c81 -58 240 -111 334 -111
l47 0 0 525 c0 488 -1 526 -17 540 -10 9 -34 29 -54 45 -41 34 -69 84 -69 124
0 15 9 45 20 66 26 51 20 51 -14 0z"/>
<path d="M1107 1620 c-6 -28 -9 -30 -54 -31 -44 -1 -46 -1 -20 -11 15 -5 27
-13 27 -18 0 -5 -12 -13 -27 -18 -26 -10 -25 -10 18 -11 43 -1 47 -3 57 -33 8
-28 10 -20 11 60 1 50 -1 92 -3 92 -2 0 -6 -13 -9 -30z"/>
<path d="M391 1452 c-42 -85 -61 -170 -61 -273 0 -114 21 -194 75 -284 106
-177 264 -256 419 -211 l58 17 -5 35 c-3 19 -15 50 -27 69 -17 28 -32 38 -78
51 -125 34 -202 84 -270 176 -74 100 -114 264 -95 393 6 39 10 71 9 72 -1 2
-13 -19 -25 -45z"/>
</g>
</svg>
